# xmcd
#
# Track frame offsets: 
#        150
#        11347
#        41402
#        53775
#        82730
#        107825
#        126885
#        146660
#        157405
#        173042
#        206317
#        228432
#        244977
#        271345
#        292245
#
# Disc length: 4378 seconds
#
# Revision: 15
# Processed by: cddbd v1.5.2PL0 Copyright (c) Steve Scherf et al.
# Submitted via: ExactAudioCopy v0.99pb4
#
DISCID=d211180f
DTITLE=Led Zeppelin - Remasters [CD1]
DYEAR=1990
DGENRE=Hard Rock
TTITLE0=Communication Breakdown
TTITLE1=Babe I'm Gonna Leave You
TTITLE2=Good Times Bad Times
TTITLE3=Dazed And Confused
TTITLE4=Whole Lotta Love
TTITLE5=Heartbreaker
TTITLE6=Ramble On
TTITLE7=Immigrant Song
TTITLE8=Celebration Day
TTITLE9=Since I've Been Loving You
TTITLE10=Black Dog
TTITLE11=Rock And Roll
TTITLE12=The Battle Of Evermore
TTITLE13=Misty Mountain Hop
TTITLE14=Stairway To Heaven
EXTD=YEAR: 1990
EXTT0=
EXTT1=
EXTT2=
EXTT3=
EXTT4=
EXTT5=
EXTT6=
EXTT7=
EXTT8=
EXTT9=
EXTT10=
EXTT11=
EXTT12=
EXTT13=
EXTT14=
PLAYORDER=
